# File produced by Open Asset Import Library (http://www.assimp.sf.net)
# (assimp v3.1.156197168)

mtllib 035c0b5eb187073f598fe8a6a1312612.obj.mtl

# 97 vertex positions
v  15.3791 202.418 59.1365
v  -31.3873 202.418 51.31
v  -33.3715 202.418 52.9549
v  13.7998 202.418 57.0398
v  18.9349 202.418 9.59551
v  20.9192 202.418 7.95066
v  -27.8315 202.418 1.76914
v  -26.2524 202.418 3.86583
v  -26.2524 208.328 3.86583
v  18.9349 208.328 9.59551
v  -31.3873 208.328 51.31
v  13.7998 208.328 57.0398
v  -36.4162 11.9978 49.9214
v  -37.2026 7.99483 57.1878
v  -37.2026 11.9978 57.1878
v  -30.7835 7.99483 -2.1189
v  -31.4295 11.9978 3.84843
v  -30.7835 11.9978 -2.1189
v  24.9235 11.9978 4.94467
v  24.9235 7.99483 4.94467
v  -24.2086 11.9978 -1.2852
v  18.4504 11.9978 4.12389
v  18.5045 11.9978 64.2516
v  18.5045 7.99483 64.2516
v  12.1753 11.9978 63.4489
v  -32.0228 11.9978 57.8447
v  19.459 11.9978 55.433
v  24.0891 11.9978 12.6544
v  -30.7835 6.77893 -2.1189
v  24.9235 -6.08315e-15 4.94467
v  -30.7835 -6.08315e-15 -2.1189
v  24.9235 6.77893 4.94467
v  18.5045 6.77893 64.2516
v  18.5045 -6.08315e-15 64.2516
v  -37.2026 -6.08315e-15 57.1878
v  -37.2026 6.77893 57.1878
v  -24.2086 188.243 -1.2852
v  18.4504 188.243 4.12389
v  18.0753 188.243 7.59005
v  -24.5838 188.243 2.18095
v  18.0753 187.139 7.59005
v  18.0753 11.9978 7.59005
v  20.9192 11.9978 7.95066
v  20.9192 187.139 7.95066
v  20.4599 11.9978 12.1943
v  20.4599 187.139 12.1943
v  24.0891 188.243 12.6544
v  20.4599 188.243 12.1943
v  19.459 188.243 55.433
v  15.8298 11.9978 54.9727
v  15.8298 187.139 54.9727
v  15.8298 188.243 54.9727
v  15.3791 187.139 59.1365
v  15.3791 11.9978 59.1365
v  12.6791 11.9978 58.7941
v  12.6791 187.139 58.7941
v  12.1753 188.243 63.4489
v  12.6791 188.243 58.7941
v  -32.0228 188.243 57.8447
v  -31.5189 188.243 53.1899
v  -31.5189 11.9978 53.1899
v  -31.5189 187.139 53.1899
v  -33.3715 11.9978 52.9549
v  -33.3715 187.139 52.9549
v  -33.0891 187.139 50.3433
v  -33.0891 11.9978 50.3433
v  -36.4162 188.243 49.9214
v  -33.0891 188.243 50.3433
v  -31.4295 188.243 3.84843
v  -28.1023 11.9978 4.2703
v  -28.1023 187.139 4.2703
v  -28.1023 188.243 4.2703
v  -24.5838 187.139 2.18095
v  -24.5838 11.9978 2.18095
v  -27.8315 11.9978 1.76914
v  -6.22625 234.899 30.4528
v  -30.5102 6.77893 -4.27413
v  25.1968 7.99483 2.78943
v  25.1968 6.77893 2.78943
v  -30.5102 7.99483 -4.27413
v  26.526 6.77893 5.11813
v  26.526 7.99483 5.11813
v  -32.7106 7.99483 -2.32746
v  -32.7106 6.77893 -2.32746
v  20.107 7.99483 64.4251
v  20.107 6.77893 64.4251
v  -39.1297 6.77893 56.9793
v  -39.1297 7.99483 56.9793
v  18.3025 7.99483 65.8444
v  18.3025 6.77893 65.8444
v  -37.4045 6.77893 58.7809
v  -37.4045 7.99483 58.7809
v  -27.8315 187.139 1.76914
v  -34.2699 0.0427594 30.0921
v  -34.2135 0.0809 29.5719
v  -20.6554 -0.860633 -0.834657
v  -20.6599 -0.860633 -0.835223

# 268 UV coordinates
vt -0.381529 -0.86079 0
vt -0.694257 -0.785696 0
vt -0.707526 -0.797098 0
vt -0.39209 -0.844732 0
vt -0.357751 -0.496525 0
vt -0.344483 -0.485123 0
vt -0.67048 -0.421432 0
vt -0.659919 -0.43749 0
vt 0.963549 1.51786 0
vt 0.0413766 1.13725 0
vt 0.963549 1.13725 0
vt 0.0413766 1.51786 0
vt 1.9297 1.13725 0
vt 1.9297 1.51786 0
vt -0.924777 1.51786 0
vt -0.924777 1.13725 0
vt -1.84695 1.13725 0
vt -1.84695 1.51786 0
vt 29.8677 0.0288527 0
vt 32.0973 -0.820168 0
vt 32.0973 0.0288527 0
vt 13.9001 -0.820168 0
vt 15.7311 0.0288527 0
vt 13.9001 0.0288527 0
vt -3.22936 0.0288527 0
vt -3.22936 -0.820168 0
vt 11.8784 0.0288527 0
vt -1.23894 0.0288527 0
vt -21.4265 0.0288527 0
vt -38.556 -0.820168 0
vt -21.4265 -0.820168 0
vt -38.556 0.0288527 0
vt -23.3727 0.0288527 0
vt -36.9632 0.0288527 0
vt -18.7207 0.0288527 0
vt -5.59495 0.0288527 0
vt 11.0274 0.987011 0
vt 0.0232954 0.0169532 0
vt 11.0274 0.0169532 0
vt 0.0232954 0.987011 0
vt -11.6667 0.987011 0
vt -11.6667 0.0169532 0
vt 22.7174 0.0169532 0
vt 22.7174 0.987011 0
vt -22.6708 0.0169532 0
vt -22.6708 0.987011 0
vt 0.993212 0.998497 0
vt 0.00610817 0.00150174 0
vt 0.993212 0.00150174 0
vt 0.00610817 0.998497 0
vt 0.940022 5.12594 0
vt 0.0149862 5.91354 0
vt 0.00677902 5.60595 0
vt 0.948229 5.43353 0
vt 0.183002 -1.38778e-17 0
vt 0.101976 1 0
vt 0.101976 -1.38778e-17 0
vt 0.101976 1.0063 0
vt 0.183002 1.0063 0
vt 0.141184 1 0
vt 0.07989 0 0
vt 0.141184 0 0
vt 0.07989 1 0
vt 0.0782189 -1.38778e-17 0
vt 0.169483 1 0
vt 0.0782189 1 0
vt 0.169483 -1.38778e-17 0
vt 1.11022e-16 0 0
vt 0.0782189 0 0
vt 1.11022e-16 1.0063 0
vt 0.0782189 1.0063 0
vt 5.55111e-17 -1.38778e-17 0
vt -1 1.0063 0
vt -1 -1.38778e-17 0
vt 5.55111e-17 1.0063 0
vt -1.07822 2.77556e-17 0
vt -1 2.77556e-17 0
vt -1.07822 1 0
vt -1.07822 1.0063 0
vt -0.998443 -1.38778e-17 0
vt -1.09578 1 0
vt -1.09578 -1.38778e-17 0
vt -0.998443 1 0
vt -1.15397 -1.38778e-17 0
vt -1.15397 1 0
vt -1.09462 -1.38778e-17 0
vt -1.20343 1.0063 0
vt -1.20343 -1.38778e-17 0
vt -1.09462 1.0063 0
vt -1.09462 1 0
vt 1 1.0063 0
vt 0 0 0
vt 1 0 0
vt 0 1.0063 0
vt 1.53995 1.0063 0
vt 1.64877 -2.77556e-17 0
vt 1.64877 1.0063 0
vt 1.53995 -2.77556e-17 0
vt 1.53995 1 0
vt 1.50002 -2.77556e-17 0
vt 1.50002 1 0
vt -0.383575 1 0
vt -0.327409 0 0
vt -0.327409 1 0
vt -0.383575 0 0
vt -0.461519 -1.38778e-17 0
vt -0.383575 -1.38778e-17 0
vt -0.461519 1.0063 0
vt -0.383575 1.0063 0
vt 0.00564592 1.00478 0
vt 0.993521 0.00150881 0
vt 0.993521 1.00478 0
vt 0.00564592 0.00150881 0
vt 1.23873 1.0063 0
vt 1.16345 0 0
vt 1.23873 0 0
vt 1.16345 1 0
vt 1.16345 1.0063 0
vt 0.0662575 0.998504 0
vt 0.93945 0.99226 0
vt 0.93945 0.998504 0
vt 0.0662575 0.00149764 0
vt 0.93945 0.00149764 0
vt -98.817 23.5397 0
vt -107.614 44.5016 0
vt -109.733 24.9238 0
vt -97.9288 31.7456 0
vt -86.0424 41.7664 0
vt -87.2732 30.3945 0
vt -111.679 -152.23 0
vt -126.093 -126.234 0
vt -128.674 -150.075 0
vt -116.105 -136.187 0
vt -110.026 -136.958 0
vt -115.177 -127.619 0
vt 54.0925 -173.249 0
vt 34.9804 -155.344 0
vt 33.3275 -170.616 0
vt 43.8386 -156.467 0
vt 45.3172 -142.807 0
vt 57.224 -144.316 0
vt 72.4145 -3.96727 0
vt 62.0146 11.4651 0
vt 60.5077 -2.45751 0
vt 53.9151 24.02 0
vt 52.6842 12.6481 0
vt 75.1523 21.3272 0
vt 0.490408 1 0
vt 2.22045e-16 0 0
vt 0.491262 1 0
vt 0.509592 1 0
vt 4.97606 0.59097 0
vt -0.643481 0.683574 0
vt -0.643481 0.59097 0
vt 4.97606 0.683574 0
vt 1.71602 0.59097 0
vt 1.93343 0.683574 0
vt 1.71602 0.683574 0
vt 1.93343 0.59097 0
vt 1.85292 0.683574 0
vt 2.07033 0.59097 0
vt 2.07033 0.683574 0
vt 1.85292 0.59097 0
vt -0.11405 0.683574 0
vt -0.241879 0.59097 0
vt -0.11405 0.59097 0
vt -0.241879 0.683574 0
vt 4.57356 0.683574 0
vt 4.41986 0.59097 0
vt 4.57356 0.59097 0
vt 4.41986 0.683574 0
vt -3.01468 0.683574 0
vt -3.01468 0.59097 0
vt 6.80103 0.59097 0
vt 6.80103 0.683574 0
vt 4.02825 0.683574 0
vt 3.90042 0.59097 0
vt 4.02825 0.59097 0
vt 3.90042 0.683574 0
vt -0.47045 0.683574 0
vt -0.624156 0.59097 0
vt -0.47045 0.59097 0
vt -0.624156 0.683574 0
vt -4.25278 0.59097 0
vt -4.41347 0.683574 0
vt -4.41347 0.59097 0
vt -4.25278 0.683574 0
vt 8.03914 0.683574 0
vt 8.19983 0.59097 0
vt 8.19983 0.683574 0
vt 8.03914 0.59097 0
vt 4.53914 0.683574 0
vt -1.08039 0.59097 0
vt 4.53914 0.59097 0
vt -1.08039 0.683574 0
vt 0.518292 0.697741 0
vt -0.423386 -0.807205 0
vt 0.522934 0.345904 0
vt -0.428028 -0.455368 0
vt 0.423386 -0.807205 0
vt -0.518292 0.697741 0
vt -0.522934 0.345904 0
vt 0.428028 -0.455368 0
vt 0.868657 1 0
vt 0.922448 -2.77556e-17 0
vt 0.922448 1 0
vt 0.868657 -2.77556e-17 0
vt 0.792571 -1.38778e-17 0
vt 0.868657 -1.38778e-17 0
vt 0.792571 1 0
vt 0.997571 0.992854 0
vt 1.98674 0.0801172 0
vt 2.03992 0.992854 0
vt 1.0485 0.0801172 0
vt 1.0485 0.009047 0
vt 0.997571 0.009047 0
vt 1.98674 0.009047 0
vt 2.03992 0.009047 0
vt 0.93129 0.0801172 0
vt 0.93129 0.009047 0
vt 0.060712 0.0801172 0
vt 0.00267412 0.009047 0
vt 0.060712 0.009047 0
vt 0.00267412 0.992854 0
vt -1.00148 0.979599 0
vt -1.05658 -0.00420715 0
vt -1.00148 -0.00420715 0
vt -1.05658 0.0668631 0
vt -1.95857 0.0668631 0
vt -1.99638 -0.00420715 0
vt -1.95857 -0.00420715 0
vt -1.99638 0.979599 0
vt 0.0302949 0.00633023 0
vt -0.0561216 0.0774005 0
vt -0.0561216 0.00633023 0
vt -0.927261 0.00633023 0
vt -1.01205 0.990137 0
vt -1.01205 0.00633023 0
vt -0.927261 0.0774005 0
vt 0.0302949 0.990137 0
vt -5.58205 0.0267241 0
vt -5.4034 0.994814 0
vt -5.94024 0.0355083 0
vt -5.04522 0.98603 0
vt 0.977096 0.0440131 0
vt 0.0212058 0.954412 0
vt 0.0101839 0.541337 0
vt 0.988118 0.457088 0
vt 0.442991 0.0105528 0
vt 0.550742 0.989542 0
vt 0.0522926 0.0209719 0
vt 0.941441 0.979123 0
vt 0.555668 0.379951 0
vt 0.631977 -9.33577 0
vt 0.664711 -9.30173 0
vt -0.631977 -9.33577 0
vt -0.555668 0.379951 0
vt -0.664711 -9.30173 0
vt -0.310912 -10.7489 0
vt 0.635408 -9.59582 0
vt -0.314344 -10.4889 0
vt 0.310912 -10.7489 0
vt -0.635408 -9.59582 0
vt 0.314344 -10.4889 0
vt -0.341567 -10.5172 0
vt -0.450609 -0.83552 0
vt 0.341567 -10.5172 0
vt 0.450609 -0.83552 0

# 63 vertex normals
vn 0 0.0254 0
vn 0.00319509 0 -0.0251982
vn -0.0252525 0 -0.00273319
vn 0.0252525 0 0.00273319
vn -0.00319509 0 0.0251982
vn -0.0252525 8.09198e-17 -0.00273319
vn 0.00319509 6.66323e-17 -0.0251982
vn -0.00319509 -5.52757e-17 0.0251982
vn 0.0252525 -2.25457e-17 0.00273319
vn 0.00319509 4.3023e-17 -0.0251982
vn 0.0252525 6.27581e-18 0.00273319
vn -0.0252525 7.81738e-18 -0.00273319
vn -0.00319509 -1.66644e-19 0.0251982
vn 0.00319509 -6.1804e-20 -0.0251982
vn 0.0252525 -2.13964e-18 0.00273319
vn 0.00319509 -1.31038e-19 -0.0251982
vn 0.0252525 -7.14446e-19 0.00273319
vn 0.00319509 7.25378e-19 -0.0251982
vn 0.0252525 -1.66943e-18 0.00273319
vn -0.00319509 2.11226e-19 0.0251982
vn 0.0252525 -1.04146e-18 0.00273319
vn -0.00319509 1.32994e-19 0.0251982
vn 0.0252525 -1.6617e-18 0.00273319
vn -0.00319509 1.87756e-19 0.0251982
vn -0.0252525 1.6617e-18 -0.00273319
vn -0.00319509 -7.78185e-19 0.0251982
vn -0.0252525 5.0577e-19 -0.00273319
vn -0.00319509 1.05613e-19 0.0251982
vn -0.0252525 1.07075e-19 -0.00273319
vn -0.0252525 -1.6643e-18 -0.00273319
vn -0.00237742 0.0169694 0.0187496
vn 0.00237742 -0.0169694 -0.0187496
vn -0.0191745 0.0165284 -0.00207534
vn 0.00237742 0.0169694 -0.0187496
vn 0.0191745 0.0165284 0.00207534
vn 0.00319509 1.14761e-16 -0.0251982
vn 0.0251982 -1.03925e-17 0.00319509
vn -0.0251982 1.80218e-17 -0.00319509
vn 0.00273319 7.49663e-17 -0.0252525
vn 0.00273319 1.42436e-16 -0.0252525
vn 0.0252525 -3.87467e-17 0.00273319
vn -0.0252525 4.33921e-18 -0.00273319
vn -0.00273319 6.49112e-18 0.0252525
vn -0.00273319 0 0.0252525
vn 0.0251982 -5.98442e-17 0.00319509
vn -0.0251982 0 -0.00319509
vn -0.00319509 5.25389e-18 0.0251982
vn 6.06671e-18 -0.0254 -6.9058e-17
vn -9.25269e-18 0.0254 1.14507e-16
vn -0.0252525 8.32782e-19 -0.00273319
vn 0.00319509 2.66182e-20 -0.0251982
vn -0.0252525 -8.1298e-18 -0.00273319
vn 0.00319509 7.21954e-19 -0.0251982
vn -0.00319509 4.00583e-18 0.0251982
vn 0.0252525 1.24872e-17 0.00273319
vn 0.00319509 5.85234e-18 -0.0251982
vn -0.00319509 -5.85234e-18 0.0251982
vn -4.31401e-18 -0.0254 -4.66923e-19
vn 4.31401e-18 0.0254 4.66923e-19
vn -3.2525e-18 -0.0254 4.88353e-18
vn 5.84411e-18 0.0254 -4.55493e-18
vn -3.85216e-17 -0.0254 -4.16936e-18
vn 3.85216e-17 0.0254 4.16936e-18

# Mesh 'SketchUp_meshId0_name' with 8 faces
g SketchUp_meshId0_name
usemtl m15ID3
f  1/1/1 2/2/1 3/3/1
f  2/2/1 1/1/1 4/4/1
f  4/4/1 1/1/1 5/5/1
f  5/5/1 1/1/1 6/6/1
f  2/2/1 7/7/1 3/3/1
f  7/7/1 2/2/1 8/8/1
f  7/7/1 8/8/1 6/6/1
f  6/6/1 8/8/1 5/5/1

# Mesh 'SketchUp_meshId1_name' with 8 faces
g SketchUp_meshId1_name
usemtl m2ID16
f  9/9/2 5/10/2 8/11/2
f  5/10/2 9/9/2 10/12/2
f  9/9/3 2/13/3 11/14/3
f  2/13/3 9/9/3 8/11/3
f  5/10/4 12/15/4 4/16/4
f  12/15/4 5/10/4 10/12/4
f  12/15/5 2/17/5 4/16/5
f  2/17/5 12/15/5 11/18/5

# Mesh 'SketchUp_meshId2_name' with 16 faces
g SketchUp_meshId2_name
usemtl m14ID29
f  13/19/6 14/20/6 15/21/6
f  14/20/6 13/19/6 16/22/6
f  16/22/6 13/19/6 17/23/6
f  16/22/6 17/23/6 18/24/6
f  16/22/7 19/25/7 20/26/7
f  19/25/7 16/22/7 18/24/7
f  19/25/7 18/24/7 21/27/7
f  19/25/7 21/27/7 22/28/7
f  23/29/8 14/30/8 24/31/8
f  14/30/8 23/29/8 15/32/8
f  15/32/8 23/29/8 25/33/8
f  15/32/8 25/33/8 26/34/8
f  20/26/9 23/29/9 24/31/9
f  23/29/9 20/26/9 27/35/9
f  27/35/9 20/26/9 28/36/9
f  28/36/9 20/26/9 19/25/9

# Mesh 'SketchUp_meshId3_name' with 8 faces
g SketchUp_meshId3_name
usemtl m17ID42
f  29/37/10 30/38/10 31/39/10
f  30/38/10 29/37/10 32/40/10
f  30/38/11 33/41/11 34/42/11
f  33/41/11 30/38/11 32/40/11
f  29/37/12 35/43/12 36/44/12
f  35/43/12 29/37/12 31/39/12
f  33/41/13 35/45/13 34/42/13
f  35/45/13 33/41/13 36/46/13

# Mesh 'SketchUp_meshId4_name' with 2 faces
g SketchUp_meshId4_name
usemtl m18ID55
f  37/47/14 22/48/14 21/49/14
f  22/48/14 37/47/14 38/50/14

# Mesh 'SketchUp_meshId5_name' with 2 faces
g SketchUp_meshId5_name
usemtl m19ID68
f  39/51/1 37/52/1 40/53/1
f  37/52/1 39/51/1 38/54/1

# Mesh 'SketchUp_meshId6_name' with 22 faces
g SketchUp_meshId6_name
usemtl m20ID81
f  22/55/15 41/56/15 42/57/15
f  41/56/15 22/55/15 39/58/15
f  39/58/15 22/55/15 38/59/15
f  41/60/16 43/61/16 42/62/16
f  43/61/16 41/60/16 44/63/16
f  45/64/17 44/65/17 46/66/17
f  44/65/17 45/64/17 43/67/17
f  46/66/18 28/68/18 45/69/18
f  28/68/18 46/66/18 47/70/18
f  47/70/18 46/66/18 48/71/18
f  28/72/19 49/73/19 27/74/19
f  49/73/19 28/72/19 47/75/19
f  49/73/20 50/76/20 27/77/20
f  50/76/20 49/73/20 51/78/20
f  51/78/20 49/73/20 52/79/20
f  50/80/21 53/81/21 54/82/21
f  53/81/21 50/80/21 51/83/21
f  53/81/22 55/84/22 54/82/22
f  55/84/22 53/81/22 56/85/22
f  55/86/23 57/87/23 25/88/23
f  57/87/23 55/86/23 58/89/23
f  58/89/23 55/86/23 56/90/23

# Mesh 'SketchUp_meshId7_name' with 2 faces
g SketchUp_meshId7_name
usemtl m18ID55
f  57/91/24 26/92/24 25/93/24
f  26/92/24 57/91/24 59/94/24

# Mesh 'SketchUp_meshId8_name' with 12 faces
g SketchUp_meshId8_name
usemtl m20ID81
f  60/95/25 26/96/25 59/97/25
f  26/96/25 60/95/25 61/98/25
f  61/98/25 60/95/25 62/99/25
f  62/99/26 63/100/26 61/98/26
f  63/100/26 62/99/26 64/101/26
f  65/102/27 63/103/27 64/104/27
f  63/103/27 65/102/27 66/105/27
f  65/102/28 13/106/28 66/107/28
f  13/106/28 65/102/28 67/108/28
f  67/108/28 65/102/28 68/109/28
f  69/110/29 13/111/29 67/112/29
f  13/111/29 69/110/29 17/113/29

# Mesh 'SketchUp_meshId9_name' with 3 faces
g SketchUp_meshId9_name
usemtl m18ID55
f  69/114/18 70/115/18 17/116/18
f  70/115/18 69/114/18 71/117/18
f  71/117/18 69/114/18 72/118/18

# Mesh 'SketchUp_meshId10_name' with 3 faces
g SketchUp_meshId10_name
usemtl m0ID118
f  37/119/30 73/120/30 40/121/30
f  73/120/30 21/122/30 74/123/30
f  21/122/30 73/120/30 37/119/30

# Mesh 'SketchUp_meshId11_name' with 4 faces
g SketchUp_meshId11_name
usemtl m1ID131
f  70/124/1 18/125/1 17/126/1
f  18/125/1 70/124/1 75/127/1
f  18/125/1 75/127/1 21/128/1
f  21/128/1 75/127/1 74/129/1

# Mesh 'SketchUp_meshId12_name' with 4 faces
g SketchUp_meshId12_name
usemtl m1ID131
f  26/130/1 13/131/1 15/132/1
f  13/131/1 26/130/1 63/133/1
f  63/133/1 26/130/1 61/134/1
f  66/135/1 13/131/1 63/133/1

# Mesh 'SketchUp_meshId13_name' with 4 faces
g SketchUp_meshId13_name
usemtl m1ID131
f  23/136/1 55/137/1 25/138/1
f  55/137/1 23/136/1 54/139/1
f  54/139/1 23/136/1 50/140/1
f  50/140/1 23/136/1 27/141/1

# Mesh 'SketchUp_meshId14_name' with 4 faces
g SketchUp_meshId14_name
usemtl m1ID131
f  28/142/1 43/143/1 45/144/1
f  43/143/1 22/145/1 42/146/1
f  22/145/1 43/143/1 19/147/1
f  19/147/1 43/143/1 28/142/1

# Mesh 'SketchUp_meshId15_name' with 1 faces
g SketchUp_meshId15_name
usemtl m3ID168
f  76/148/31 11/92/31 12/93/31

# Mesh 'SketchUp_meshId16_name' with 1 faces
g SketchUp_meshId16_name
usemtl m4ID177
f  12/93/32 11/92/32 76/148/32

# Mesh 'SketchUp_meshId17_name' with 1 faces
g SketchUp_meshId17_name
usemtl m5ID186
f  11/149/33 76/150/33 9/93/33

# Mesh 'SketchUp_meshId18_name' with 1 faces
g SketchUp_meshId18_name
usemtl m6ID195
f  10/93/34 9/92/34 76/151/34

# Mesh 'SketchUp_meshId19_name' with 1 faces
g SketchUp_meshId19_name
usemtl m7ID200
f  76/150/35 12/93/35 10/92/35

# Mesh 'SketchUp_meshId20_name' with 24 faces
g SketchUp_meshId20_name
usemtl m8ID209
f  77/152/36 78/153/36 79/154/36
f  78/153/36 77/152/36 80/155/36
f  32/156/37 78/157/37 20/158/37
f  78/157/37 32/156/37 79/159/37
f  80/160/38 29/161/38 16/162/38
f  29/161/38 80/160/38 77/163/38
f  20/164/39 81/165/39 32/166/39
f  81/165/39 20/164/39 82/167/39
f  83/168/40 29/169/40 84/170/40
f  29/169/40 83/168/40 16/171/40
f  81/156/41 85/172/41 86/173/41
f  85/172/41 81/156/41 82/158/41
f  83/162/42 87/174/42 88/175/42
f  87/174/42 83/162/42 84/161/42
f  85/176/43 33/177/43 86/178/43
f  33/177/43 85/176/43 24/179/43
f  14/180/44 87/181/44 36/182/44
f  87/181/44 14/180/44 88/183/44
f  33/184/45 89/185/45 90/186/45
f  89/185/45 33/184/45 24/187/45
f  14/188/46 91/189/46 92/190/46
f  91/189/46 14/188/46 36/191/46
f  89/192/47 91/193/47 90/194/47
f  91/193/47 89/192/47 92/195/47

# Mesh 'SketchUp_meshId21_name' with 2 faces
g SketchUp_meshId21_name
usemtl m9ID222
f  77/196/48 32/197/48 29/198/48
f  32/197/48 77/196/48 79/199/48

# Mesh 'SketchUp_meshId22_name' with 2 faces
g SketchUp_meshId22_name
usemtl m9ID222
f  20/200/49 80/201/49 16/202/49
f  80/201/49 20/200/49 78/203/49

# Mesh 'SketchUp_meshId23_name' with 4 faces
g SketchUp_meshId23_name
usemtl m20ID81
f  93/204/50 70/205/50 71/206/50
f  70/205/50 93/204/50 75/207/50
f  93/204/51 74/208/51 75/209/51
f  74/208/51 93/204/51 73/210/51

# Mesh 'SketchUp_meshId24_name' with 24 faces
g SketchUp_meshId24_name
usemtl m2ID16
f  7/211/52 68/212/52 3/213/52
f  68/212/52 7/211/52 72/214/52
f  72/214/52 7/211/52 71/215/52
f  71/215/52 7/211/52 93/216/52
f  3/213/52 65/217/52 64/218/52
f  65/217/52 3/213/52 68/212/52
f  93/216/53 40/219/53 73/220/53
f  40/219/53 93/216/53 7/211/53
f  40/219/53 7/211/53 39/221/53
f  39/221/53 44/222/53 41/223/53
f  44/222/53 39/221/53 6/224/53
f  6/224/53 39/221/53 7/211/53
f  1/225/54 56/226/54 53/227/54
f  56/226/54 1/225/54 58/228/54
f  58/228/54 1/225/54 60/229/54
f  60/229/54 64/230/54 62/231/54
f  64/230/54 60/229/54 3/232/54
f  3/232/54 60/229/54 1/225/54
f  44/233/55 48/234/55 46/235/55
f  51/236/55 1/237/55 53/238/55
f  1/237/55 51/236/55 52/239/55
f  1/237/55 52/239/55 6/240/55
f  6/240/55 52/239/55 48/234/55
f  6/240/55 48/234/55 44/233/55

# Mesh 'SketchUp_meshId25_name' with 2 faces
g SketchUp_meshId25_name
usemtl m10ID260
f  40//56 41//56 73//56
f  41//56 40//56 39//56

# Mesh 'SketchUp_meshId26_name' with 2 faces
g SketchUp_meshId26_name
usemtl m11ID265
f  39//57 40//57 41//57
f  73//57 41//57 40//57

# Mesh 'SketchUp_meshId27_name' with 2 faces
g SketchUp_meshId27_name
usemtl m12ID269
f  68/241/1 69/242/1 67/243/1
f  69/242/1 68/241/1 72/244/1

# Mesh 'SketchUp_meshId28_name' with 2 faces
g SketchUp_meshId28_name
usemtl m13ID282
f  72//3 65//3 68//3
f  65//3 72//3 71//3

# Mesh 'SketchUp_meshId29_name' with 2 faces
g SketchUp_meshId29_name
usemtl m19ID68
f  57/245/1 60/246/1 59/247/1
f  60/246/1 57/245/1 58/248/1

# Mesh 'SketchUp_meshId30_name' with 2 faces
g SketchUp_meshId30_name
usemtl m13ID282
f  58//5 62//5 56//5
f  62//5 58//5 60//5

# Mesh 'SketchUp_meshId31_name' with 2 faces
g SketchUp_meshId31_name
usemtl m12ID269
f  49/249/1 48/250/1 52/251/1
f  48/250/1 49/249/1 47/252/1

# Mesh 'SketchUp_meshId32_name' with 2 faces
g SketchUp_meshId32_name
usemtl m13ID282
f  46//4 52//4 51//4
f  52//4 46//4 48//4

# Mesh 'SketchUp_meshId33_name' with 2 faces
g SketchUp_meshId33_name
usemtl m9ID222
f  84/253/58 36/254/58 87/255/58
f  36/254/58 84/253/58 29/198/58

# Mesh 'SketchUp_meshId34_name' with 2 faces
g SketchUp_meshId34_name
usemtl m9ID222
f  14/256/59 83/257/59 88/258/59
f  83/257/59 14/256/59 16/202/59

# Mesh 'SketchUp_meshId35_name' with 2 faces
g SketchUp_meshId35_name
usemtl m9ID222
f  36/254/60 90/259/60 91/260/60
f  90/259/60 36/254/60 33/261/60

# Mesh 'SketchUp_meshId36_name' with 2 faces
g SketchUp_meshId36_name
usemtl m9ID222
f  89/262/61 14/256/61 92/263/61
f  14/256/61 89/262/61 24/264/61

# Mesh 'SketchUp_meshId37_name' with 2 faces
g SketchUp_meshId37_name
usemtl m9ID222
f  32/197/62 86/265/62 33/261/62
f  86/265/62 32/197/62 81/266/62

# Mesh 'SketchUp_meshId38_name' with 2 faces
g SketchUp_meshId38_name
usemtl m9ID222
f  85/267/63 20/200/63 24/264/63
f  20/200/63 85/267/63 82/268/63

# Mesh 'SketchUp_meshId39_name' with 1 faces
g SketchUp_meshId39_name
usemtl m16ID366
l  94 95

# Mesh 'SketchUp_meshId40_name' with 1 faces
g SketchUp_meshId40_name
usemtl m16ID366
l  96 97

